<?xml version="1.0" standalone="no"?>
<!DOCTYPE svg PUBLIC "-//W3C//DTD SVG 1.1//EN" "http://www.w3.org/Graphics/SVG/1.1/DTD/svg11.dtd" >
<svg xmlns="http://www.w3.org/2000/svg" xmlns:xlink="http://www.w3.org/1999/xlink" version="1.1">
<metadata></metadata>
<defs>
<font id="decima_nova_pro_heavyheavy" horiz-adv-x="1187" >
<font-face units-per-em="2048" ascent="1536" descent="-512" />
<missing-glyph horiz-adv-x="450" />
<glyph horiz-adv-x="0" />
<glyph horiz-adv-x="682" />
<glyph unicode=" "  horiz-adv-x="450" />
<glyph unicode="&#x09;" horiz-adv-x="450" />
<glyph unicode="&#xa0;" horiz-adv-x="450" />
<glyph unicode="!" horiz-adv-x="712" d="M164 1434h385l-45 -965h-295zM199 0v315h315v-315h-315z" />
<glyph unicode="&#x22;" horiz-adv-x="999" d="M123 893v541h303l-43 -541h-260zM573 893v541h304l-43 -541h-261z" />
<glyph unicode="#" d="M8 338v305h209l21 148h-166v303h211l49 340h272l-49 -340h193l49 340h270l-51 -340h164v-303h-207l-23 -148h170v-305h-213l-49 -338h-270l51 338h-193l-49 -338h-272l47 338h-164zM492 643h190l23 148h-193z" />
<glyph unicode="$" d="M72 1014q0 162 89 262.5t245 140.5v121h348v-106q68 -8 135.5 -24.5t100.5 -29.5l34 -12l-14 -307q-262 53 -420 53q-168 0 -168 -94q0 -33 23.5 -57t64 -38.5t92.5 -26.5t109.5 -26t115 -33t109.5 -52t92.5 -77.5t64 -114.5t23.5 -159q0 -167 -90 -275t-272 -147v-116 h-348v104q-69 7 -148 23t-124 28l-44 12l10 316q283 -60 449 -60q123 0 170 23.5t47 79.5q0 36 -23.5 61t-64 40.5t-92.5 28t-109.5 27.5t-115 33.5t-109.5 51.5t-92.5 77t-64 114t-23.5 159z" />
<glyph unicode="%" horiz-adv-x="1943" d="M143 971v174q0 137 94.5 223t233.5 86t234.5 -86t95.5 -223v-174q0 -138 -95 -223.5t-235 -85.5q-139 0 -233.5 86.5t-94.5 222.5zM367 952q0 -44 29 -69t75 -25t75 24.5t29 67.5v215q0 42 -30.5 67t-75.5 25q-44 0 -73 -25t-29 -67v-213zM526 0l656 1434h219l-649 -1434 h-226zM1135 289v174q0 137 94 223t233 86q140 0 239 -86.5t99 -222.5v-174q0 -137 -98.5 -223t-239.5 -86q-139 0 -233 86.5t-94 222.5zM1358 270q0 -44 29 -69t75 -25t75.5 24.5t29.5 67.5v215q0 42 -30.5 67t-76.5 25q-44 0 -73 -25t-29 -67v-213z" />
<glyph unicode="&#x26;" horiz-adv-x="1400" d="M143 494q0 143 65.5 246.5t170.5 164.5l-146 252v277h900v-310h-533l246 -419l82 -170v225h301v-266q0 -74 -23 -145.5t-46 -106.5l-23 -35l120 -207h-348l-24 39q-14 -7 -38 -17.5t-90.5 -27.5t-123.5 -17q-66 0 -129 13.5t-130 49.5t-117 92t-82 149.5t-32 212.5z M494 496q0 -96 33.5 -147.5t117.5 -51.5q16 0 36 4t32 8l12 4l-182 314q-5 -5 -13.5 -15.5t-22 -44.5t-13.5 -71z" />
<glyph unicode="'" horiz-adv-x="548" d="M123 893v541h303l-43 -541h-260z" />
<glyph unicode="(" horiz-adv-x="800" d="M174 113v841q0 124 42 221t116 157t169.5 91t207.5 31v-328q-89 0 -145 -47.5t-56 -124.5v-841q0 -78 56.5 -126t144.5 -48v-326q-112 0 -207.5 31t-169.5 91t-116 157t-42 221z" />
<glyph unicode=")" horiz-adv-x="800" d="M92 -61q88 0 144.5 48t56.5 126v841q0 77 -56 124.5t-145 47.5v328q112 0 207.5 -31t169.5 -91t116 -157t42 -221v-841q0 -124 -42 -221t-116 -157t-169.5 -91t-207.5 -31v326z" />
<glyph unicode="*" horiz-adv-x="1216" d="M143 1020l82 240l262 -82v276h252v-272l260 84l74 -246l-254 -82l160 -219l-209 -148l-158 215l-155 -223l-205 156l158 213z" />
<glyph unicode="+" d="M96 438v312h340v340h312v-340h342v-312h-342v-342h-312v342h-340z" />
<glyph unicode="," horiz-adv-x="643" d="M143 -143q47 0 87 39t40 104h-106v315h315v-284q0 -80 -20 -141t-52 -98t-77.5 -60.5t-90.5 -32t-96 -8.5v166z" />
<glyph unicode="-" horiz-adv-x="905" d="M143 440v305h619v-305h-619z" />
<glyph unicode="." horiz-adv-x="643" d="M164 0v315h315v-315h-315z" />
<glyph unicode="/" horiz-adv-x="825" d="M41 0l420 1436h323l-424 -1436h-319z" />
<glyph unicode="0" d="M68 465q-6 253 0 506q5 206 154.5 344.5t373.5 138.5q228 0 374.5 -136.5t149.5 -346.5q6 -253 0 -506q-5 -206 -154 -345.5t-370 -139.5q-225 0 -374 139.5t-154 345.5zM406 467q2 -71 52.5 -116.5t137.5 -45.5q82 0 131 45.5t51 116.5q7 252 0 500q-2 72 -50.5 117.5 t-131.5 45.5q-85 0 -136.5 -45.5t-53.5 -117.5q-6 -252 0 -500z" />
<glyph unicode="1" d="M94 0v324h395v751l-331 -155v333l370 181h301v-1110h320v-324h-1055z" />
<glyph unicode="2" d="M98 0v319l531 476q68 61 92 101.5t24 104.5q0 76 -48.5 105t-133.5 29q-70 0 -172 -16t-169 -32l-66 -16l-15 313q27 8 73 19t164.5 30t209.5 19q499 0 499 -446q0 -78 -15 -140.5t-46 -113.5t-64 -88t-85 -82l-297 -258h510v-324h-992z" />
<glyph unicode="3" d="M102 53l19 318q26 -8 70 -20.5t157.5 -33t200.5 -20.5q194 0 194 197q0 38 -14 64t-32.5 39.5t-50 20.5t-52 8t-53.5 1h-170v254l243 243h-499v310h919v-265l-225 -262q57 -20 104.5 -53t86.5 -82.5t61 -121.5t22 -161q0 -118 -35 -210.5t-89 -147t-126.5 -90t-140 -48.5 t-137.5 -13q-113 0 -226 18t-170 36z" />
<glyph unicode="4" d="M35 264v289l459 881h374l-460 -854h272v303h336v-303h135v-316h-135v-264h-336v264h-645z" />
<glyph unicode="5" d="M98 51l17 309q255 -65 413 -65q121 0 170.5 46.5t49.5 145.5q0 79 -42.5 119.5t-142.5 40.5q-77 0 -163 -20t-134 -40l-47 -20l-121 205l52 662h878v-320h-579l-15 -176q94 18 182 18q474 0 474 -467q0 -110 -31 -200t-96 -160.5t-174.5 -109.5t-256.5 -39 q-113 0 -221.5 17.5t-160.5 35.5z" />
<glyph unicode="6" d="M76 475q-6 231 0 471q2 103 37 194t99.5 161t164.5 110.5t225 40.5q95 0 198 -9t158 -17l56 -9l-17 -315q-178 35 -368 35q-211 0 -211 -224q109 33 215 33q233 0 358 -115.5t125 -349.5q0 -238 -141 -369.5t-379 -131.5q-120 0 -218 39t-162.5 107t-100.5 157.5 t-39 191.5zM414 614q0 -98 2 -135q0 -78 45 -131t133 -53q180 0 180 186q0 172 -174 172q-35 0 -81.5 -9.5t-75.5 -19.5z" />
<glyph unicode="7" d="M125 1114v320h965v-310l-541 -1124h-354l546 1114h-616z" />
<glyph unicode="8" d="M51 422q0 65 14.5 121.5t35.5 91.5t42 61t35 36l15 11q-5 4 -12 12t-26.5 35t-34 57.5t-26.5 79.5t-12 101q0 187 142 305.5t372 118.5q225 0 366.5 -120.5t141.5 -303.5q0 -52 -11.5 -100.5t-28 -80.5t-32.5 -56.5t-28 -36.5l-11 -11q6 -4 15.5 -11.5t34 -35.5t43 -61.5 t34 -90.5t15.5 -122q0 -113 -43.5 -200t-119.5 -139t-171 -77.5t-205 -25.5q-112 0 -208 25.5t-173 77.5t-120.5 138.5t-43.5 200.5zM389 432q0 -73 61 -111t146 -38q82 0 142.5 38t60.5 111q0 71 -61.5 112.5t-141.5 41.5q-82 0 -144.5 -41.5t-62.5 -112.5zM416 1022 q0 -64 48.5 -101.5t131.5 -37.5q76 0 125 38t49 101q0 54 -51 89.5t-123 35.5q-78 0 -129 -35t-51 -90z" />
<glyph unicode="9" d="M72 950q0 238 141.5 370t378.5 132q159 0 277.5 -68.5t178.5 -179.5t64 -248q6 -231 0 -471q-2 -103 -37 -193.5t-99.5 -160.5t-164.5 -110.5t-225 -40.5q-92 0 -195 9t-160 18l-57 9l16 316q182 -37 385 -37q57 0 97.5 21t60.5 56t28.5 70.5t8.5 75.5q-109 -33 -215 -33 q-233 0 -358 115.5t-125 349.5zM414 950q0 -172 174 -172q35 0 81.5 10t75.5 20l29 9q0 98 -2 135q0 79 -45 132t-133 53q-180 0 -180 -187z" />
<glyph unicode=":" horiz-adv-x="643" d="M164 0v315h315v-315h-315zM164 709v315h315v-315h-315z" />
<glyph unicode=";" horiz-adv-x="643" d="M143 -143q47 0 87 39t40 104h-106v315h315v-284q0 -80 -20 -141t-52 -98t-77.5 -60.5t-90.5 -32t-96 -8.5v166zM164 709v315h315v-315h-315z" />
<glyph unicode="&#x3c;" d="M94 461v266l998 455v-355l-580 -233l580 -236v-352z" />
<glyph unicode="=" d="M121 164v311h944v-311h-944zM121 719v311h944v-311h-944z" />
<glyph unicode="&#x3e;" d="M94 6v352l580 236l-580 233v355l998 -455v-266z" />
<glyph unicode="?" horiz-adv-x="1169" d="M102 1384q28 8 76 19.5t175.5 31t230.5 19.5q82 0 152 -13t132 -43t105.5 -76t68.5 -115.5t25 -157.5q0 -74 -15.5 -133t-42 -97.5t-60.5 -67.5t-72 -48.5t-75.5 -36t-71.5 -33.5t-60.5 -37.5t-42 -52.5t-15.5 -74h-290q0 101 22 176t57 117t77.5 72t85.5 48t78 36.5 t57 47t22 70.5q0 119 -174 119q-80 0 -184.5 -16.5t-168.5 -32.5l-65 -16zM311 0v315h316v-315h-316z" />
<glyph unicode="@" horiz-adv-x="1830" d="M143 205q-18 337 0 674q14 256 230.5 422.5t546.5 166.5q169 0 312 -45t242 -123.5t156.5 -187t61.5 -233.5q10 -276 0 -529q-3 -69 -27 -124.5t-59.5 -90.5t-80.5 -58t-87 -32.5t-82 -9.5q-43 0 -83 9.5t-66 23t-45.5 27t-28.5 23.5l-9 9q-17 -10 -45 -25t-98 -40 t-119 -25q-150 0 -234 84.5t-89 216.5q-6 174 0 348q5 134 97.5 220.5t258.5 86.5q82 0 178.5 -16.5t152.5 -33.5l56 -17v-564q0 -108 82 -108q45 0 69 38.5t27 100.5q10 213 0 479q-3 74 -40.5 142t-104 121.5t-169.5 85.5t-226 32q-122 0 -225 -32t-171 -85.5t-107 -121.5 t-42 -142q-12 -330 0 -661q3 -75 41 -144t105.5 -123t171 -86t227.5 -32q87 0 187 17.5t157 34.5l57 18l45 -213q-25 -8 -68 -20t-161 -32t-217 -20q-166 0 -308.5 45.5t-243 124.5t-159.5 188.5t-66 235.5zM770.5 512q-1.5 -142 1.5 -143q4 -119 96 -119q24 0 67.5 14 t74.5 28l32 15v453q-93 18 -147 18q-62 0 -92.5 -35t-30.5 -86q0 -3 -1.5 -145z" />
<glyph unicode="A" horiz-adv-x="1388" d="M41 0l451 1434h403l453 -1434h-361l-86 301h-416l-86 -301h-358zM573 610h240l-119 434z" />
<glyph unicode="B" horiz-adv-x="1337" d="M174 0v1434h571q230 0 346.5 -109.5t116.5 -310.5q0 -50 -12.5 -95.5t-30 -74.5t-35.5 -51t-30 -31l-13 -10q6 -4 16 -11.5t35.5 -34.5t45 -58.5t35.5 -84.5t16 -112q0 -224 -126.5 -337.5t-403.5 -113.5h-531zM520 322h193q95 0 130.5 33t35.5 102q0 127 -136 127h-223 v-262zM520 887h223q58 0 88.5 29.5t30.5 82.5q0 48 -25.5 79.5t-76.5 31.5h-240v-223z" />
<glyph unicode="C" horiz-adv-x="1236" d="M137 477q-3 120 -3 240t3 239q2 101 44.5 191.5t115.5 158.5t179.5 108t230.5 40q92 0 194.5 -11t158.5 -23l56 -11l-12 -313q-217 37 -397 37q-97 0 -157.5 -54t-62.5 -127q-3 -118 -3 -235.5t3 -235.5q2 -73 61.5 -126.5t158.5 -53.5q92 0 195.5 11.5t161.5 23.5l58 12 l13 -313q-24 -6 -65.5 -15t-154.5 -24.5t-208 -15.5q-125 0 -232 39.5t-179.5 107.5t-114.5 158.5t-44 191.5z" />
<glyph unicode="D" horiz-adv-x="1427" d="M174 0v1434h541q251 0 410.5 -137t164.5 -343q3 -120 3 -239t-3 -236q-5 -206 -163.5 -342.5t-411.5 -136.5h-541zM520 322h195q102 0 160.5 46t60.5 115q3 118 3 234.5t-3 232.5q-2 68 -62 114t-159 46h-195v-788z" />
<glyph unicode="E" horiz-adv-x="1351" d="M174 0v1434h1026v-324h-676v-223h619v-303h-619v-262h695v-322h-1045z" />
<glyph unicode="F" horiz-adv-x="1253" d="M174 0v1434h1018v-322h-672v-240h615v-303h-615v-569h-346z" />
<glyph unicode="G" horiz-adv-x="1390" d="M137 479q-3 119 -3 238t3 237q2 101 44.5 191.5t116.5 158.5t184 108t239 40q118 0 242 -14t189 -28l65 -15l-15 -314q-296 52 -489 52q-100 0 -162 -55t-64 -128q-3 -117 -3 -233.5t3 -233.5q2 -74 63 -128t163 -54q33 0 83 3.5t84 7.5l33 3v191h-219v303h553v-735 q-10 -4 -28.5 -10t-77 -22.5t-118 -29t-145 -22.5t-165.5 -10q-126 0 -234 40t-181.5 108t-116 159t-44.5 192z" />
<glyph unicode="H" horiz-adv-x="1495" d="M174 0v1434h348v-541h447v541h352v-1434h-352v580h-447v-580h-348z" />
<glyph unicode="I" horiz-adv-x="698" d="M174 0v1434h350v-1434h-350z" />
<glyph unicode="J" horiz-adv-x="796" d="M72 18l2 291q67 -12 141 -12q78 0 78 111v1026h350v-1076q0 -105 -27 -180.5t-76 -117.5t-108 -61t-131 -19q-44 0 -101.5 9.5t-92.5 18.5z" />
<glyph unicode="K" horiz-adv-x="1431" d="M174 0v1434h346v-535l424 535h426l-575 -684l616 -750h-444l-447 571v-571h-346z" />
<glyph unicode="L" horiz-adv-x="1179" d="M174 0v1434h350v-1112h615v-322h-965z" />
<glyph unicode="M" horiz-adv-x="1710" d="M174 0v1434h358l322 -600l324 600h358v-1434h-350v707l28 231h-8l-59 -154l-156 -276h-276l-150 272l-61 158h-8l28 -238v-700h-350z" />
<glyph unicode="N" horiz-adv-x="1497" d="M174 0v1434h352l387 -670l80 -182l-16 194v658h346v-1434h-352l-387 670l-80 182l16 -188v-664h-346z" />
<glyph unicode="O" horiz-adv-x="1460" d="M133 710q0 162 6 244q10 135 86 248.5t209.5 182.5t296.5 69q166 0 299 -68t208 -181.5t83 -250.5q5 -82 5 -243t-5 -232q-7 -101 -53.5 -192t-123 -159t-184 -108t-229.5 -40q-124 0 -232 40t-183 108.5t-121.5 159t-55.5 191.5q-6 69 -6 231zM484 715q0 -167 5 -230 q5 -75 69.5 -133.5t172.5 -58.5q107 0 171 57.5t69 134.5q5 63 5 230t-5 233q-5 74 -70 133.5t-170 59.5q-107 0 -172 -59t-70 -134q-5 -66 -5 -233z" />
<glyph unicode="P" horiz-adv-x="1298" d="M174 0v1434h619q198 0 304.5 -98.5t114.5 -260.5q3 -71 3 -142t-3 -142q-8 -162 -114.5 -259.5t-304.5 -97.5h-271v-434h-348zM522 754h264q42 0 63 19.5t23 43.5q4 58 4 116t-4 116q-2 23 -23.5 42t-62.5 19h-264v-356z" />
<glyph unicode="Q" horiz-adv-x="1482" d="M134 710q-1 12 -1 24q0 140 6 220q10 135 86 248.5t209.5 182.5t296.5 69q166 0 299 -68t208 -181.5t83 -250.5q5 -82 5 -243t-5 -232q-4 -52 -19 -104t-28 -77l-14 -26q78 -70 172 -176l-234 -188q-55 64 -120.5 120t-152 101t-159.5 45q-54 0 -104.5 -14.5t-83.5 -35.5 t-58.5 -42.5t-37.5 -35.5l-11 -15q-38 17 -75 38.5t-83 61t-81 86t-61.5 115.5t-31.5 147q-5 74 -5 231zM486 715q0 -160 3 -230q1 -22 7 -41t12 -28l6 -8q12 7 34.5 18t88.5 29t129 18q55 0 103.5 -9.5t70.5 -19.5l21 -10q8 26 10 51q3 70 3 230q1 18 1 34q0 134 -4 199 q-5 74 -70 133.5t-170 59.5q-107 0 -172 -59t-70 -134q-4 -65 -4 -199q0 -16 1 -34z" />
<glyph unicode="R" horiz-adv-x="1372" d="M174 0v1434h621q197 0 302.5 -99.5t114.5 -263.5q3 -62 3 -123.5t-3 -124.5q-3 -69 -22.5 -126.5t-44.5 -90.5t-49 -56t-41 -32l-17 -8l293 -510h-409l-236 455h-164v-455h-348zM522 774h260q42 0 65 21.5t25 48.5q3 54 3 103t-3 95q-2 28 -24.5 48t-65.5 20h-260v-336z " />
<glyph unicode="S" horiz-adv-x="1284" d="M113 1020q0 89 27 161.5t75 122.5t115.5 84t146 50t168.5 16q104 0 219 -13t178 -27l64 -13l-12 -311q-234 43 -449 43q-88 0 -138 -26.5t-50 -80.5q0 -34 25 -59t67.5 -40.5t98 -29t116.5 -29t121.5 -35.5t116 -53t98 -78t67.5 -114.5t25 -157.5q0 -219 -143 -334.5 t-433 -115.5q-115 0 -236 15.5t-185 31.5l-64 16l19 313q278 -59 454 -59q130 0 187 29t57 90q0 38 -25 65t-67.5 44t-98 30.5t-116.5 28.5t-121.5 34t-116 51.5t-98 77t-67.5 114.5t-25 159z" />
<glyph unicode="T" horiz-adv-x="1161" d="M41 1110v324h1079v-324h-364v-1110h-350v1110h-365z" />
<glyph unicode="U" horiz-adv-x="1484" d="M154 481v953h350v-938q0 -92 65.5 -144.5t173.5 -52.5t174 52t66 145v938h348v-953q0 -215 -167.5 -358t-420.5 -143q-257 0 -423 142.5t-166 358.5z" />
<glyph unicode="V" horiz-adv-x="1359" d="M41 1434h360l279 -1055l276 1055h363l-438 -1434h-402z" />
<glyph unicode="W" horiz-adv-x="1966" d="M82 1434h364l107 -959l10 -139h8l21 139l201 959h381l200 -959l21 -139h8l12 139l105 959h364l-246 -1434h-419l-209 932l-23 160h-8l-21 -160l-210 -932h-420z" />
<glyph unicode="X" horiz-adv-x="1480" d="M41 0l489 735l-462 699h409l264 -424l265 424h407l-463 -701l490 -733h-412l-287 461l-288 -461h-412z" />
<glyph unicode="Y" horiz-adv-x="1402" d="M31 1434h401l270 -568l269 568h401l-495 -885v-549h-351v549z" />
<glyph unicode="Z" horiz-adv-x="1333" d="M102 0v311l672 799h-653v324h1100v-312l-672 -800h682v-322h-1129z" />
<glyph unicode="[" horiz-adv-x="800" d="M174 -369v1805h535v-316h-201v-1177h201v-312h-535z" />
<glyph unicode="\" horiz-adv-x="825" d="M41 1436h324l419 -1436h-319z" />
<glyph unicode="]" horiz-adv-x="800" d="M92 -57h201v1177h-201v316h535v-1805h-535v312z" />
<glyph unicode="^" horiz-adv-x="1193" d="M102 633l365 803h260l365 -803h-344l-150 399l-154 -399h-342z" />
<glyph unicode="_" horiz-adv-x="1212" d="M0 -154h1212v-235h-1212v235z" />
<glyph unicode="`" horiz-adv-x="604" d="M2 1464h406l196 -299h-305z" />
<glyph unicode="a" horiz-adv-x="1083" d="M102 326q0 156 82.5 229.5t266.5 73.5h178q0 60 -30 102.5t-101 42.5q-63 0 -142.5 -11t-127.5 -21l-48 -11l-30 258q22 6 59 15t141 24.5t193 15.5q194 0 300.5 -104.5t106.5 -261.5v-678h-288l-15 72q-4 -4 -12 -10t-33.5 -21.5t-52 -27.5t-67 -21.5t-79.5 -9.5 q-147 0 -224 94.5t-77 249.5zM412 336q0 -43 12.5 -64.5t44.5 -21.5q29 0 69 18t66 36l25 18v104h-140q-77 0 -77 -90z" />
<glyph unicode="b" horiz-adv-x="1140" d="M143 49v1385h326v-445q9 5 25.5 13t65.5 21t95 13q163 0 263.5 -101t105.5 -253q3 -86 3 -171t-3 -169q-3 -75 -31.5 -140t-79.5 -115t-131 -78.5t-180 -28.5q-104 0 -218.5 17t-177.5 35zM469 285q49 -17 119 -17q48 0 79 25.5t33 58.5q3 78 3 157t-3 159 q-2 33 -30 60.5t-72 27.5q-31 0 -63.5 -10t-48.5 -20l-17 -11v-430z" />
<glyph unicode="c" horiz-adv-x="952" d="M117 340q-3 86 -3 172t3 172q5 153 117.5 256.5t304.5 103.5q68 0 151.5 -6.5t132.5 -13.5l49 -6l-26 -279q-140 19 -287 19q-50 0 -82.5 -26t-34.5 -64q-4 -78 -4 -156t4 -156q2 -36 34.5 -63t82.5 -27q69 0 142 8t111 16l38 7l41 -277q-190 -40 -352 -40 q-192 0 -304 103t-118 257z" />
<glyph unicode="d" horiz-adv-x="1140" d="M117 336q-3 86 -3 170t3 168q3 77 27.5 141.5t69.5 114.5t118 78t166 28q42 0 86 -7.5t67 -14.5l23 -8v428h323v-1434h-288l-15 72q-13 -10 -36.5 -25.5t-90 -41t-127.5 -25.5q-142 0 -230 102.5t-93 253.5zM440 352q2 -34 26.5 -60t76.5 -26q24 0 56.5 13t53.5 27l21 13 v410q-63 27 -133 27q-45 0 -72 -31.5t-29 -67.5q-4 -76 -4 -152.5t4 -152.5z" />
<glyph unicode="e" horiz-adv-x="1081" d="M117 342q-3 82 -3 167t3 173q5 152 124 257t308 105q182 0 302 -103t126 -251q2 -42 2 -112.5t-1 -119.5l-1 -50h-541q0 -66 31 -111t96 -45q74 0 160 11t135 21l49 11l39 -258q-20 -6 -55.5 -15.5t-140 -25.5t-201.5 -16q-196 0 -311 103t-121 259zM438 629h254 q0 37 -2 47q-7 42 -38.5 74t-82.5 32q-54 0 -88 -32t-41 -74z" />
<glyph unicode="f" horiz-adv-x="825" d="M41 737v287h133v109q0 145 90.5 233t247.5 88q40 0 108 -7t116 -13l48 -7l-18 -266q-125 23 -215 23q-24 0 -37.5 -19t-13.5 -41v-100h258v-287h-258v-737h-326v737h-133z" />
<glyph unicode="g" horiz-adv-x="1034" d="M84 561q-2 41 -2 83t2 83q6 142 111 229.5t292 87.5q7 0 17 -1t20.5 -2t21.5 -2.5t20.5 -3t16.5 -2.5t11 -2l4 -1q34 57 81 84t93 27q48 0 98.5 -5.5t76.5 -11.5l26 -6l-27 -213h-100l-12 -16q42 -54 47 -162q2 -41 2 -82t-2 -84q-4 -101 -67 -177t-167 -108 q0 -2 0.5 -9.5t2 -13t4 -13t9 -14t15.5 -11.5q13 -7 46.5 -22.5t49.5 -23.5t45 -25t44 -30.5t35.5 -35.5t30.5 -44t17.5 -52.5t7.5 -65.5q0 -164 -117 -234.5t-339 -70.5q-102 0 -201.5 16.5t-148.5 33.5l-48 17l50 246q215 -67 350 -67q75 0 104 11.5t29 45.5q0 16 -8.5 28 t-16 16.5t-23.5 11t-18 7.5l-161 72q-39 18 -63 56.5t-24 87.5v81q-113 33 -171.5 108t-63.5 179zM373 578q2 -35 31.5 -56.5t80.5 -21.5q49 0 78 22t31 56q2 27 2 55t-2 57q-2 33 -31.5 55.5t-77.5 22.5q-51 0 -80.5 -22t-31.5 -56q-1 -29 -1 -57t1 -55z" />
<glyph unicode="h" horiz-adv-x="1150" d="M143 0v1434h326v-445q97 47 201 47q168 0 258 -100t90 -258v-678h-322v657q0 41 -24.5 70t-61.5 29t-72.5 -11t-51.5 -21l-17 -11v-713h-326z" />
<glyph unicode="i" horiz-adv-x="616" d="M143 1165v269h330v-269h-330zM145 0v1024h324v-1024h-324z" />
<glyph unicode="j" horiz-adv-x="618" d="M-92 -369l26 279q95 -14 150 -14q33 0 48 19t15 44v1065h324v-1092q0 -144 -90 -232.5t-248 -88.5q-35 0 -91 5t-95 10zM143 1165v269h332v-269h-332z" />
<glyph unicode="k" horiz-adv-x="1171" d="M143 0v1434h322v-742l260 332h377l-406 -481l455 -543h-403l-283 367v-367h-322z" />
<glyph unicode="l" horiz-adv-x="610" d="M143 0v1434h324v-1434h-324z" />
<glyph unicode="m" horiz-adv-x="1615" d="M143 0v1024h289l14 -72q14 9 38 23t85.5 37.5t106.5 23.5q37 0 71 -8t55.5 -19.5t37.5 -23t23 -19.5l7 -8q17 9 46 22t102.5 34.5t128.5 21.5q164 0 250 -96t86 -268v-672h-322v672q0 35 -24.5 59.5t-63.5 24.5q-21 0 -48 -12t-43 -24l-17 -11v-709h-306v670 q0 39 -22.5 61.5t-52.5 22.5q-21 0 -49.5 -10t-46.5 -20l-19 -11v-713h-326z" />
<glyph unicode="n" horiz-adv-x="1150" d="M143 0v1024h289l14 -72q14 10 37.5 25.5t88 41t118.5 25.5q169 0 248.5 -105t79.5 -288v-651h-322v662q0 40 -23.5 67t-62.5 27q-35 0 -70.5 -13t-53.5 -25l-19 -13v-705h-324z" />
<glyph unicode="o" horiz-adv-x="1132" d="M117 342q-3 84 -3 169t3 171q5 157 121 259.5t329 102.5q202 0 322.5 -104t126.5 -258q3 -85 3 -170t-3 -170q-6 -155 -127 -258.5t-322 -103.5q-209 0 -326.5 103t-123.5 259zM442 356q2 -35 35 -62.5t90 -27.5q56 0 88.5 28t34.5 62q4 77 4 155t-4 157q-2 35 -35 62.5 t-90 27.5q-56 0 -88.5 -28t-34.5 -62q-4 -79 -4 -157t4 -155z" />
<glyph unicode="p" horiz-adv-x="1140" d="M143 -369v1393h289l14 -72q13 10 36.5 25.5t90 41t127.5 25.5q149 0 234 -98.5t90 -253.5q3 -86 3 -172t-3 -170q-3 -77 -27.5 -141.5t-69.5 -114.5t-118 -78t-166 -28q-40 0 -84 8.5t-68 17.5l-24 9v-392h-324zM467 295q63 -27 133 -27q45 0 71.5 31.5t28.5 67.5 q4 77 4 153t-4 152q-2 34 -26 60t-76 26q-24 0 -56.5 -13t-53.5 -27l-21 -13v-410z" />
<glyph unicode="q" horiz-adv-x="1140" d="M117 342q-3 86 -3 171t3 169q3 75 31.5 140t79.5 115t131 78.5t180 28.5q104 0 218.5 -17t176.5 -35l63 -17v-1344h-325v404q-9 -5 -26 -13t-66 -21t-95 -13q-163 0 -263 101t-105 253zM440 356q2 -32 30.5 -60t72.5 -28q31 0 63.5 10t49.5 20l16 11v430q-49 17 -119 17 q-49 0 -80 -25.5t-33 -58.5q-3 -78 -3 -157t3 -159z" />
<glyph unicode="r" horiz-adv-x="768" d="M143 0v1024h293l15 -76q5 4 13.5 10t37.5 21.5t61 27.5t82.5 22.5t102.5 12.5v-299q-73 0 -143 -21.5t-104 -43.5l-34 -21v-657h-324z" />
<glyph unicode="s" horiz-adv-x="999" d="M102 721q0 160 106.5 241.5t287.5 81.5q79 0 166.5 -11.5t135.5 -22.5l48 -11l-37 -262q-186 35 -303 35q-86 0 -86 -55q0 -20 26.5 -35t68.5 -26.5t92.5 -25.5t101.5 -37t93 -55.5t68.5 -87.5t26.5 -126q0 -344 -420 -344q-91 0 -184 15t-140 29l-47 15l44 260 q174 -47 317 -47q65 0 89 14.5t24 48.5q0 20 -26.5 34.5t-68.5 26t-93 25.5t-102 38.5t-93 58.5t-68.5 91.5t-26.5 131.5z" />
<glyph unicode="t" horiz-adv-x="847" d="M61 737v287h136v246h323v-246h246v-287h-246v-413q0 -23 15 -40.5t40 -17.5q28 0 69.5 4t69.5 8l27 5l19 -277q-152 -26 -254 -26q-153 0 -231 86.5t-78 224.5v446h-136z" />
<glyph unicode="u" horiz-adv-x="1150" d="M133 373v651h322v-662q0 -40 23.5 -67t62.5 -27q35 0 70.5 13t54.5 25l18 13v705h324v-1024h-289l-14 72q-14 -10 -38 -25.5t-90.5 -41t-123.5 -25.5q-163 0 -241.5 105t-78.5 288z" />
<glyph unicode="v" horiz-adv-x="1058" d="M31 1024h329l134 -553l30 -178h8l31 178l135 553h330l-319 -1024h-359z" />
<glyph unicode="w" horiz-adv-x="1503" d="M82 1024h330l41 -547l6 -135h8l16 131l115 551h307l115 -551l16 -131h8l7 131l41 551h329l-153 -1024h-373l-123 526l-16 158h-8l-17 -158l-123 -526h-372z" />
<glyph unicode="x" horiz-adv-x="1140" d="M41 0l350 530l-330 494h361l149 -244l148 244h360l-329 -496l350 -528h-363l-166 270l-168 -270h-362z" />
<glyph unicode="y" horiz-adv-x="1150" d="M31 1024h334l202 -649h8l220 649h325l-532 -1393h-318l170 414l-84 37z" />
<glyph unicode="z" horiz-adv-x="976" d="M82 0v274l403 463h-385v287h787v-274l-404 -463h412v-287h-813z" />
<glyph unicode="{" horiz-adv-x="811" d="M82 383v299q51 0 76.5 25t25.5 63v184q0 124 42 221t115.5 157t169 91t208.5 31v-328q-89 0 -145 -47.5t-56 -124.5v-215q0 -43 -10.5 -80.5t-26 -60t-31 -39t-26.5 -23.5l-10 -6q4 -2 11 -6.5t25 -21.5t32 -38t25 -58t11 -80v-213q0 -78 56.5 -126t144.5 -48v-328 q-112 0 -208 31t-169.5 91.5t-115.5 158t-42 221.5v182q0 38 -26 63t-76 25z" />
<glyph unicode="|" horiz-adv-x="649" d="M174 -369v1803h301v-1803h-301z" />
<glyph unicode="}" horiz-adv-x="811" d="M92 -61q88 0 144.5 48t56.5 126v213q0 43 10.5 80t26 59t31 37.5t25.5 21.5l11 6q-4 2 -11 6.5t-25 22.5t-32 40t-25 59.5t-11 80.5v215q0 77 -56 124.5t-145 47.5v328q113 0 208.5 -31t169 -91t115.5 -157t42 -221v-184q0 -38 25.5 -63t76.5 -25v-299q-50 0 -76 -25 t-26 -63v-182q0 -124 -42 -221.5t-115.5 -158t-169.5 -91.5t-208 -31v328z" />
<glyph unicode="~" horiz-adv-x="1378" d="M123 510q28 44 41.5 65t41 59t46 57t48 45t57 38t63 21.5t74.5 9.5q63 0 140.5 -32.5t144.5 -64.5t104 -32q46 0 81 26.5t85 102.5l206 -133q-29 -45 -41.5 -65t-40.5 -59t-46 -57t-48 -44.5t-57 -38.5t-62.5 -21.5t-74.5 -9.5q-63 0 -140.5 32.5t-144.5 64.5t-104 32 q-46 0 -81 -26.5t-85 -102.5z" />
<glyph unicode="&#xa2;" d="M209 360q-6 174 0 345q3 121 77.5 214t205.5 128v116h276v-104l197 -21l-27 -278q-140 18 -287 18q-50 0 -82 -26t-34 -64q-9 -156 0 -311q2 -36 34 -63t82 -27q69 0 142 7.5t111 15.5l38 7l41 -276q-100 -23 -215 -35v-104h-276v114q-130 34 -204 128t-79 216z" />
<glyph unicode="&#xa3;" d="M90 573v304h96q-14 89 -14 157q0 109 37.5 190.5t107 130.5t161.5 73t208 24q71 0 165.5 -9t152.5 -17l59 -9l-19 -315q-239 33 -358 33q-79 0 -128.5 -32.5t-49.5 -92.5q0 -23 4 -56t8 -55l4 -22h467v-304h-407q2 -41 2 -55q0 -44 -12 -93.5t-24 -77.5l-11 -28h557v-319 h-977v285q5 4 14 11t31.5 31.5t40 51.5t31.5 68t14 83l-4 43h-156z" />
<glyph unicode="&#xa5;" d="M0 1434h401l195 -598l190 598h402l-256 -594h139v-250h-246l-55 -127h301v-248h-301v-215h-350v215h-301v248h299l-53 127h-246v248h137z" />
<glyph unicode="&#xa8;" horiz-adv-x="733" d="M0 1165v269h287v-269h-287zM446 1165v269h287v-269h-287z" />
<glyph unicode="&#xa9;" horiz-adv-x="1720" d="M123 717q0 150 58 286.5t157 235.5t235.5 157t286.5 58t286.5 -58t235.5 -157t157 -235.5t58 -286.5t-58 -286.5t-157 -235.5t-235.5 -157t-286.5 -58t-286.5 58t-235.5 157t-157 235.5t-58 286.5zM346 717q0 -140 68.5 -258.5t187 -187t258.5 -68.5t258.5 68.5t187 187 t68.5 258.5t-68.5 258.5t-187 187t-258.5 68.5t-258.5 -68.5t-187 -187t-68.5 -258.5zM588 600q-6 117 0 231q5 108 80 180t202 72q42 0 92.5 -5t80.5 -10l30 -5l-20 -213q-90 10 -170 10q-32 0 -49 -14t-19 -35q-5 -94 0 -190q2 -20 21 -36t55 -16t76.5 3.5t62.5 7.5l23 4 l30 -211q-113 -25 -215 -25q-128 0 -201.5 72t-78.5 180z" />
<glyph unicode="&#xab;" horiz-adv-x="1501" d="M133 586l283 358h368l-292 -356l292 -359h-368zM707 586l282 358h369l-293 -356l293 -359h-369z" />
<glyph unicode="&#xad;" horiz-adv-x="905" d="M143 440v305h619v-305h-619z" />
<glyph unicode="&#xae;" horiz-adv-x="1302" d="M102 905q0 148 74 274.5t200.5 200.5t274.5 74q149 0 275.5 -74t200 -200.5t73.5 -274.5t-73.5 -274.5t-200 -200.5t-275.5 -74q-148 0 -274.5 74t-200.5 200.5t-74 274.5zM244 905q0 -170 118.5 -288.5t288.5 -118.5t289 118.5t119 288.5t-119 289t-289 119t-288.5 -119 t-118.5 -289zM449 629v553h249q74 0 117.5 -38t46.5 -97q3 -48 0 -101q-1 -41 -19 -68t-57 -49l127 -200h-147l-107 182h-77v-182h-133zM582 924h110q21 0 29 10.5t12 28.5q3 34 0 69q-2 10 -5.5 15.5t-12 10.5t-23.5 5h-110v-139z" />
<glyph unicode="&#xb4;" horiz-adv-x="604" d="M2 1165l197 299h405l-297 -299h-305z" />
<glyph unicode="&#xb8;" horiz-adv-x="446" d="M0 -365l14 121q80 -14 162 -14q20 0 34.5 15t14.5 40q0 19 -13 32t-32 13h-127l41 158h209l-12 -55q34 -4 58 -10.5t48 -22.5t36.5 -47.5t12.5 -77.5q0 -85 -63 -130.5t-168 -45.5q-54 0 -107.5 6t-80.5 12z" />
<glyph unicode="&#xbb;" horiz-adv-x="1501" d="M143 229l293 359l-293 356h369l283 -358l-283 -357h-369zM717 229l293 359l-293 356h368l283 -358l-283 -357h-368z" />
<glyph unicode="&#x2c6;" horiz-adv-x="776" d="M0 1165l227 299h324l227 -299h-289l-102 121l-98 -121h-289z" />
<glyph unicode="&#x2da;" horiz-adv-x="434" d="M0 1282q0 86 61.5 143.5t153.5 57.5q89 0 154 -58t65 -143q0 -84 -65 -141.5t-154 -57.5q-92 0 -153.5 57t-61.5 142zM141 1282q0 -31 21.5 -52.5t52.5 -21.5t52.5 21.5t21.5 52.5t-21.5 52.5t-52.5 21.5t-52.5 -21.5t-21.5 -52.5z" />
<glyph unicode="&#x2dc;" horiz-adv-x="759" d="M0 1147q0 82 22.5 152.5t70 117.5t112.5 47q54 0 102.5 -14.5t77 -32.5t61 -32.5t56.5 -14.5q26 0 39.5 24t13.5 62h205q0 -128 -53.5 -221.5t-147.5 -93.5q-55 0 -104 14.5t-77.5 31.5t-60 31.5t-55.5 14.5q-54 0 -61 -86h-201z" />
<glyph unicode="&#x401;" horiz-adv-x="1351" d="M174 0v1434h1026v-324h-676v-223h619v-303h-619v-262h695v-322h-1045zM309 1575v268h287v-268h-287zM756 1575v268h286v-268h-286z" />
<glyph unicode="&#x402;" horiz-adv-x="1429" d="M41 1110v324h1006v-324h-365v-207q108 10 219 10q199 0 310 -97t122 -241q5 -120 0 -243q-3 -66 -31.5 -127.5t-79 -111t-128.5 -79.5t-172 -30q-30 0 -66.5 3t-57.5 6l-22 3l29 309q53 -14 98 -14q77 0 88 86q6 55 2 147q-5 38 -35.5 62t-76.5 24q-45 0 -95 -3t-77 -6 l-27 -3v-598h-348v1110h-293z" />
<glyph unicode="&#x403;" horiz-adv-x="1179" d="M174 0v1434h965v-322h-615v-1112h-350zM485 1575l197 299h405l-296 -299h-306z" />
<glyph unicode="&#x404;" horiz-adv-x="1236" d="M137 477q-6 241 0 479q2 101 44.5 191.5t115.5 158.5t179.5 108t230.5 40q92 0 194.5 -11t158.5 -23l56 -11l-12 -313q-217 37 -397 37q-97 0 -157.5 -54t-62.5 -127q0 -10 -1 -30t-1 -29h455v-313h-455q0 -16 1 -49t1 -50q2 -73 61.5 -126.5t158.5 -53.5 q92 0 195.5 11.5t161.5 23.5l58 12l13 -313q-24 -6 -65.5 -15t-154.5 -24.5t-208 -15.5q-125 0 -232 39.5t-179.5 107.5t-114.5 158.5t-44 191.5z" />
<glyph unicode="&#x405;" horiz-adv-x="1284" d="M113 1020q0 89 27 161.5t75 122.5t115.5 84t146 50t168.5 16q104 0 219 -13t178 -27l64 -13l-12 -311q-234 43 -449 43q-88 0 -138 -26.5t-50 -80.5q0 -34 25 -59t67.5 -40.5t98 -29t116.5 -29t121.5 -35.5t116 -53t98 -78t67.5 -114.5t25 -157.5q0 -219 -143 -334.5 t-433 -115.5q-115 0 -236 15.5t-185 31.5l-64 16l19 313q278 -59 454 -59q130 0 187 29t57 90q0 38 -25 65t-67.5 44t-98 30.5t-116.5 28.5t-121.5 34t-116 51.5t-98 77t-67.5 114.5t-25 159z" />
<glyph unicode="&#x406;" horiz-adv-x="698" d="M174 0v1434h350v-1434h-350z" />
<glyph unicode="&#x407;" horiz-adv-x="698" d="M-16 1575v268h286v-268h-286zM174 0v1434h350v-1434h-350zM430 1575v268h287v-268h-287z" />
<glyph unicode="&#x408;" horiz-adv-x="796" d="M72 18l2 291q67 -12 141 -12q78 0 78 111v1026h350v-1076q0 -105 -27 -180.5t-76 -117.5t-108 -61t-131 -19q-44 0 -101.5 9.5t-92.5 18.5z" />
<glyph unicode="&#x409;" horiz-adv-x="2091" d="M31 0q11 16 29 46.5t64 127t81.5 196.5t64.5 245.5t29 283.5v535h997v-510h306q193 0 292.5 -92.5t110.5 -256.5q7 -117 0 -231q-11 -162 -110.5 -253t-292.5 -91h-658v1118h-303v-229q0 -154 -23 -302.5t-56.5 -250t-66.5 -181t-56 -117.5l-23 -38h-385zM1296 313h287 q37 0 57.5 20.5t22.5 43.5q5 83 0 170q-2 24 -21.5 43.5t-58.5 19.5h-287v-297z" />
<glyph unicode="&#x40a;" horiz-adv-x="2119" d="M174 0v1434h348v-541h447v541h352v-541h309q193 0 293 -92.5t111 -255.5q6 -102 0 -201q-11 -162 -111 -253t-293 -91h-661v580h-447v-580h-348zM1321 313h291q37 0 57.5 20.5t22.5 43.5q4 68 0 139q-2 25 -21.5 44.5t-58.5 19.5h-291v-267z" />
<glyph unicode="&#x40b;" horiz-adv-x="1435" d="M41 1110v324h1006v-324h-365v-207q108 10 219 10q207 0 319.5 -102.5t112.5 -275.5v-535h-340v500q0 54 -31.5 82t-80.5 28q-45 0 -95 -3t-77 -6l-27 -3v-598h-348v1110h-293z" />
<glyph unicode="&#x40c;" horiz-adv-x="1431" d="M174 0v1434h346v-535l424 535h426l-575 -684l616 -750h-444l-447 571v-571h-346zM582 1575l196 299h406l-297 -299h-305z" />
<glyph unicode="&#x40e;" horiz-adv-x="1394" d="M61 1434h385l279 -637l260 637h379l-645 -1434h-383l203 418zM377 1874h221q0 -84 26.5 -122t96.5 -38q72 0 96.5 37t24.5 123h221q0 -142 -94.5 -233t-247.5 -91q-157 0 -250.5 90.5t-93.5 233.5z" />
<glyph unicode="&#x40f;" horiz-adv-x="1495" d="M174 0v1434h352v-1121h447v1121h348v-1434h-395l-8 -328h-334l-11 328h-399z" />
<glyph unicode="&#x410;" horiz-adv-x="1388" d="M41 0l451 1434h403l453 -1434h-361l-86 301h-416l-86 -301h-358zM573 610h240l-119 434z" />
<glyph unicode="&#x411;" horiz-adv-x="1298" d="M174 0v1434h938v-312h-590v-233h271q198 0 300.5 -91t118.5 -253q7 -70 0 -187q-9 -163 -115 -260.5t-304 -97.5h-619zM522 319h252q42 0 68 20t30 42q3 22 3 66.5t-3 66.5q-3 24 -29.5 44t-68.5 20h-252v-259z" />
<glyph unicode="&#x412;" horiz-adv-x="1337" d="M174 0v1434h571q230 0 346.5 -109.5t116.5 -310.5q0 -50 -12.5 -95.5t-30 -74.5t-35.5 -51t-30 -31l-13 -10q6 -4 16 -11.5t35.5 -34.5t45 -58.5t35.5 -84.5t16 -112q0 -224 -126.5 -337.5t-403.5 -113.5h-531zM520 322h193q95 0 130.5 33t35.5 102q0 127 -136 127h-223 v-262zM520 887h223q58 0 88.5 29.5t30.5 82.5q0 48 -25.5 79.5t-76.5 31.5h-240v-223z" />
<glyph unicode="&#x413;" horiz-adv-x="1179" d="M174 0v1434h965v-322h-615v-1112h-350z" />
<glyph unicode="&#x414;" horiz-adv-x="1464" d="M41 315h127q4 7 11 21t24.5 63.5t31 106.5t24.5 150t11 194v584h992v-1119h131v-643h-338l-13 328h-653l-12 -328h-336v643zM532 315h377v803h-297v-299q0 -124 -20 -250t-40 -190z" />
<glyph unicode="&#x415;" horiz-adv-x="1351" d="M174 0v1434h1026v-324h-676v-223h619v-303h-619v-262h695v-322h-1045z" />
<glyph unicode="&#x416;" horiz-adv-x="1933" d="M41 0l465 748l-428 686h397l318 -523v523h346v-525l317 525h395l-424 -689l465 -745h-426l-327 567v-567h-346v567l-330 -567h-422z" />
<glyph unicode="&#x417;" horiz-adv-x="1200" d="M102 37l17 315q23 -6 63 -15t148 -23.5t196 -14.5q115 0 170.5 41t55.5 111q0 81 -50.5 114t-140.5 33h-166v301h166q65 0 112.5 31.5t47.5 89.5q0 63 -52 89t-147 26q-65 0 -160 -12t-157 -24l-62 -12l-12 304q24 7 64.5 17t152 27t205.5 17q245 0 377.5 -108 t132.5 -293q0 -166 -98 -275q133 -114 133 -327q0 -215 -148 -341t-403 -126q-113 0 -224 14t-166 28z" />
<glyph unicode="&#x418;" horiz-adv-x="1497" d="M174 0v1434h346v-664l-16 -188l80 182l387 670h352v-1434h-346v657l16 195l-80 -182l-387 -670h-352z" />
<glyph unicode="&#x419;" horiz-adv-x="1497" d="M174 0v1434h346v-664l-16 -188l80 182l387 670h352v-1434h-346v657l16 195l-80 -182l-387 -670h-352zM403 1878h222q0 -84 26.5 -122t96.5 -38q72 0 96 37t24 123h222q0 -142 -94.5 -233t-247.5 -91q-157 0 -251 90.5t-94 233.5z" />
<glyph unicode="&#x41a;" horiz-adv-x="1431" d="M174 0v1434h346v-535l424 535h426l-575 -684l616 -750h-444l-447 571v-571h-346z" />
<glyph unicode="&#x41b;" horiz-adv-x="1529" d="M31 0q11 16 29 46.5t64 127t81.5 196.5t64.5 245.5t29 283.5v535h1057v-1434h-352v1118h-363v-229q0 -154 -23 -302.5t-56.5 -250t-66.5 -181t-56 -117.5l-23 -38h-385z" />
<glyph unicode="&#x41c;" horiz-adv-x="1710" d="M174 0v1434h358l322 -600l324 600h358v-1434h-350v707l28 231h-8l-59 -154l-156 -276h-276l-150 272l-61 158h-8l28 -238v-700h-350z" />
<glyph unicode="&#x41d;" horiz-adv-x="1495" d="M174 0v1434h348v-541h447v541h352v-1434h-352v580h-447v-580h-348z" />
<glyph unicode="&#x41e;" horiz-adv-x="1460" d="M133 710q0 162 6 244q10 135 86 248.5t209.5 182.5t296.5 69q166 0 299 -68t208 -181.5t83 -250.5q5 -82 5 -243t-5 -232q-7 -101 -53.5 -192t-123 -159t-184 -108t-229.5 -40q-124 0 -232 40t-183 108.5t-121.5 159t-55.5 191.5q-6 69 -6 231zM484 715q0 -167 5 -230 q5 -75 69.5 -133.5t172.5 -58.5q107 0 171 57.5t69 134.5q5 63 5 230t-5 233q-5 74 -70 133.5t-170 59.5q-107 0 -172 -59t-70 -134q-5 -66 -5 -233z" />
<glyph unicode="&#x41f;" horiz-adv-x="1495" d="M174 0v1434h1147v-1434h-352v1120h-447v-1120h-348z" />
<glyph unicode="&#x420;" horiz-adv-x="1298" d="M174 0v1434h619q198 0 304.5 -98.5t114.5 -260.5q6 -142 0 -284q-8 -162 -114.5 -259.5t-304.5 -97.5h-271v-434h-348zM522 754h264q42 0 63 19.5t23 43.5q7 116 0 232q-2 23 -23.5 42t-62.5 19h-264v-356z" />
<glyph unicode="&#x421;" horiz-adv-x="1236" d="M137 477q-6 241 0 479q2 101 44.5 191.5t115.5 158.5t179.5 108t230.5 40q92 0 194.5 -11t158.5 -23l56 -11l-12 -313q-217 37 -397 37q-97 0 -157.5 -54t-62.5 -127q-6 -235 0 -471q2 -73 61.5 -126.5t158.5 -53.5q92 0 195.5 11.5t161.5 23.5l58 12l13 -313 q-24 -6 -65.5 -15t-154.5 -24.5t-208 -15.5q-125 0 -232 39.5t-179.5 107.5t-114.5 158.5t-44 191.5z" />
<glyph unicode="&#x422;" horiz-adv-x="1161" d="M41 1110v324h1079v-324h-364v-1110h-350v1110h-365z" />
<glyph unicode="&#x423;" horiz-adv-x="1394" d="M61 1434h385l279 -637l260 637h379l-645 -1434h-383l203 418z" />
<glyph unicode="&#x424;" horiz-adv-x="1642" d="M124 727.5q0 78.5 1 112.5q8 199 152.5 340.5t373.5 154.5v115h342v-115q228 -15 372 -155.5t153 -339.5q2 -34 2 -112.5t-2 -115.5q-5 -97 -43.5 -184t-105 -153.5t-164 -108.5t-212.5 -49v-133h-342v131q-116 7 -214 49t-164.5 109t-105 154.5t-42.5 184.5 q-1 37 -1 115.5zM474 726q0 -82 1 -110q3 -66 49 -116.5t127 -61.5v574q-79 -12 -126 -62t-50 -114q-1 -28 -1 -110zM993 438q79 11 124 61.5t50 116.5q1 28 1 110t-1 110q-5 63 -51.5 114t-122.5 62v-574z" />
<glyph unicode="&#x425;" horiz-adv-x="1476" d="M41 0l494 735l-463 699h399l268 -420l269 420h397l-463 -701l494 -733h-402l-295 459l-297 -459h-401z" />
<glyph unicode="&#x426;" horiz-adv-x="1523" d="M174 0v1434h352v-1121h447v1121h348v-1121h131v-641h-338l-12 328h-928z" />
<glyph unicode="&#x427;" horiz-adv-x="1329" d="M82 852v582h342v-572q0 -106 123 -106q59 0 125.5 7t103.5 14l37 7v650h342v-1434h-342v463q-143 -29 -301 -29q-225 0 -327.5 111.5t-102.5 306.5z" />
<glyph unicode="&#x428;" horiz-adv-x="1921" d="M174 0v1434h340v-1121h274v1121h345v-1121h274v1121h340v-1434h-1573z" />
<glyph unicode="&#x429;" horiz-adv-x="1949" d="M174 0v1434h340v-1121h274v1121h345v-1121h274v1121h340v-1121h131v-641h-338l-12 328h-1354z" />
<glyph unicode="&#x42a;" horiz-adv-x="1466" d="M41 1139v295h621v-510h315q193 0 292.5 -92.5t110.5 -256.5q7 -117 0 -231q-11 -162 -110.5 -253t-292.5 -91h-655v1130zM662 313h296q37 0 57.5 20.5t22.5 43.5q5 83 0 170q-2 24 -21.5 43.5t-58.5 19.5h-296v-297z" />
<glyph unicode="&#x42b;" horiz-adv-x="1957" d="M174 0v1434h340v-510h315q193 0 293 -93t111 -256q7 -117 0 -231q-11 -162 -111 -253t-293 -91h-655zM514 313h297q37 0 57.5 20.5t22.5 43.5q5 83 0 170q-2 24 -21.5 43.5t-58.5 19.5h-297v-297zM1444 0v1434h340v-1434h-340z" />
<glyph unicode="&#x42c;" horiz-adv-x="1318" d="M174 0v1434h340v-510h315q193 0 293 -93t111 -256q7 -117 0 -231q-11 -162 -111 -253t-293 -91h-655zM514 313h297q37 0 57.5 20.5t22.5 43.5q5 83 0 170q-2 24 -21.5 43.5t-58.5 19.5h-297v-297z" />
<glyph unicode="&#x42d;" horiz-adv-x="1236" d="M102 35l13 313q208 -47 415 -47q99 0 158.5 53.5t61.5 126.5q0 17 1 50t1 49h-455v313h455q0 9 -1 29t-1 30q-2 73 -62.5 127t-157.5 54q-80 0 -179.5 -9.5t-158.5 -18.5l-59 -9l-12 313q202 45 409 45q124 0 230.5 -40t179.5 -108t115.5 -158.5t44.5 -191.5 q6 -238 0 -479q-2 -101 -44 -191.5t-114.5 -158.5t-179.5 -107.5t-232 -39.5q-95 0 -202 14t-166 28z" />
<glyph unicode="&#x42e;" horiz-adv-x="2013" d="M174 0v1434h340v-541h195l4 61q7 101 52.5 192t119 159.5t180 108.5t229.5 40q124 0 231 -39.5t181 -107.5t118 -159t50 -194q4 -82 4 -243t-4 -232q-7 -101 -52 -192t-119.5 -159t-181 -108t-227.5 -40q-124 0 -231.5 40t-181 108t-118 159t-50.5 192l-6 101h-193v-580 h-340zM1058 715q0 -167 5 -230q5 -76 64.5 -134t166.5 -58q106 0 165.5 57t64.5 135q4 63 4 230t-4 233q-5 76 -65 134.5t-165 58.5q-106 0 -166 -58.5t-65 -134.5q-5 -66 -5 -233z" />
<glyph unicode="&#x42f;" horiz-adv-x="1372" d="M41 0l293 510q-7 3 -18 9t-39.5 30.5t-51 56.5t-42.5 90t-23 127q-6 125 0 248q9 164 115 263.5t303 99.5h620v-1434h-348v455h-164l-235 -455h-410zM500 844q2 -27 25 -48.5t65 -21.5h260v336h-260q-43 0 -65.5 -20t-24.5 -48q-6 -91 0 -198z" />
<glyph unicode="&#x430;" horiz-adv-x="1083" d="M102 326q0 156 82.5 229.5t266.5 73.5h178q0 60 -30 102.5t-101 42.5q-63 0 -142.5 -11t-127.5 -21l-48 -11l-30 258q22 6 59 15t141 24.5t193 15.5q194 0 300.5 -104.5t106.5 -261.5v-678h-288l-15 72q-4 -4 -12 -10t-33.5 -21.5t-52 -27.5t-67 -21.5t-79.5 -9.5 q-147 0 -224 94.5t-77 249.5zM412 336q0 -43 12.5 -64.5t44.5 -21.5q29 0 69 18t66 36l25 18v104h-140q-77 0 -77 -90z" />
<glyph unicode="&#x431;" horiz-adv-x="1138" d="M113 592q0 140 18 256.5t58.5 217.5t104 173t158 119t216.5 61q63 7 130.5 17.5t103.5 17.5l36 6v-270q-88 -33 -215 -45q-104 -10 -177.5 -52.5t-92.5 -117.5q6 4 17.5 10t52 16.5t85.5 10.5q178 0 291.5 -101t122.5 -252q3 -46 3 -164t-3 -155q-13 -154 -130.5 -257 t-309.5 -103q-83 0 -151.5 18t-116.5 48.5t-84.5 74t-58 90t-34.5 100.5q-24 102 -24 281zM444 391q3 -53 37.5 -89t87.5 -36q58 0 94.5 28.5t36.5 80.5q7 134 0 248q0 53 -36 81.5t-93 28.5q-56 0 -88.5 -28t-38.5 -82q-10 -113 0 -232z" />
<glyph unicode="&#x432;" horiz-adv-x="1148" d="M143 0v1024h521q169 0 260.5 -79t91.5 -222q0 -36 -9 -68t-21.5 -52t-25 -35t-21.5 -21l-9 -6q4 -3 11.5 -8t25.5 -24t32 -41t25.5 -59.5t11.5 -78.5q0 -157 -99 -243.5t-304 -86.5h-490zM465 254h168q21 0 38 10.5t23 28.5q4 13 4 41.5t-4 42.5q-14 43 -61 43h-168v-166 zM465 623h158q21 0 38 10.5t23 28.5q4 13 4 37t-4 38q-14 43 -61 43h-158v-157z" />
<glyph unicode="&#x433;" horiz-adv-x="937" d="M143 0v1024h754v-289h-428v-735h-326z" />
<glyph unicode="&#x434;" horiz-adv-x="1210" d="M41 -231v520h109q7 13 18 37.5t29 103t18 160.5v434h805v-735h108v-520h-311l-12 231h-438l-13 -231h-313zM475 289h219v448h-174v-157q0 -75 -11 -147.5t-23 -108.5z" />
<glyph unicode="&#x435;" horiz-adv-x="1081" d="M117 342q-6 164 0 340q5 152 124 257t308 105q182 0 302 -103t126 -251q2 -42 2 -112.5t-1 -119.5l-1 -50h-541q0 -66 31 -111t96 -45q74 0 160 11t135 21l49 11l39 -258q-20 -6 -55.5 -15.5t-140 -25.5t-201.5 -16q-196 0 -311 103t-121 259zM438 629h254q0 37 -2 47 q-7 42 -38.5 74t-82.5 32q-54 0 -88 -32t-41 -74z" />
<glyph unicode="&#x436;" horiz-adv-x="1611" d="M20 0l388 543l-361 481h383l215 -332v332h322v-334l215 334h379l-359 -483l389 -541h-399l-225 362v-362h-322v362l-225 -362h-400z" />
<glyph unicode="&#x437;" horiz-adv-x="1015" d="M92 37l41 256q170 -41 301 -41t131 88q0 68 -100 68h-152v221h152q38 0 62 19t24 50q0 74 -113 74q-64 0 -135 -8t-110 -16l-39 -9l-39 260q186 45 370 45q188 0 288.5 -80.5t100.5 -218.5q0 -41 -8.5 -76.5t-20 -57.5t-23.5 -38.5t-20 -22.5l-9 -7q4 -3 11.5 -8.5 t26.5 -26t33.5 -44t26.5 -62t12 -80.5q0 -169 -115.5 -255.5t-332.5 -86.5q-88 0 -179 14t-138 28z" />
<glyph unicode="&#x438;" horiz-adv-x="1234" d="M143 0v1024h324v-420l-6 -102l41 98l274 424h316v-1024h-324v416l6 106l-39 -98l-276 -424h-316z" />
<glyph unicode="&#x439;" horiz-adv-x="1296" d="M174 0v1024h324v-420l-6 -102l40 98l275 424h315v-1024h-323v416l6 106l-39 -98l-277 -424h-315zM305 1466h221q0 -84 26 -121.5t97 -37.5q72 0 96.5 36.5t24.5 122.5h221q0 -142 -94.5 -232.5t-247.5 -90.5q-157 0 -250.5 90t-93.5 233z" />
<glyph unicode="&#x43a;" horiz-adv-x="1171" d="M143 0v1024h322v-332l260 332h377l-406 -481l455 -543h-403l-283 367v-367h-322z" />
<glyph unicode="&#x43b;" horiz-adv-x="1210" d="M20 0q9 12 23.5 34t52 91t66.5 139.5t52.5 171.5t23.5 195v393h829v-1024h-326v735h-200v-112q0 -106 -17 -209.5t-41.5 -175t-49 -127.5t-41.5 -83l-17 -28h-355z" />
<glyph unicode="&#x43c;" horiz-adv-x="1400" d="M143 0v1024h332l225 -395l224 395h333v-1024h-323v436l6 88l-121 -192h-237l-121 192l6 -88v-436h-324z" />
<glyph unicode="&#x43d;" horiz-adv-x="1234" d="M143 0v1024h326v-350h283v350h323v-1024h-323v383h-283v-383h-326z" />
<glyph unicode="&#x43e;" horiz-adv-x="1132" d="M117 342q-6 168 0 340q5 157 121 259.5t329 102.5q202 0 322.5 -104t126.5 -258q6 -170 0 -340q-6 -155 -127 -258.5t-322 -103.5q-209 0 -326.5 103t-123.5 259zM442 356q2 -35 35 -62.5t90 -27.5q56 0 88.5 28t34.5 62q9 154 0 312q-2 35 -35 62.5t-90 27.5 q-56 0 -88.5 -28t-34.5 -62q-9 -158 0 -312z" />
<glyph unicode="&#x43f;" horiz-adv-x="1218" d="M143 0v1024h932v-1024h-323v733h-283v-733h-326z" />
<glyph unicode="&#x440;" horiz-adv-x="1140" d="M143 -369v1393h289l14 -72q13 10 36.5 25.5t90 41t127.5 25.5q149 0 234 -98.5t90 -253.5q6 -173 0 -342q-3 -77 -27.5 -141.5t-69.5 -114.5t-118 -78t-166 -28q-40 0 -84 8.5t-68 17.5l-24 9v-392h-324zM467 295q63 -27 133 -27q45 0 71.5 31.5t28.5 67.5q9 153 0 305 q-2 34 -26 60t-76 26q-24 0 -56.5 -13t-53.5 -27l-21 -13v-410z" />
<glyph unicode="&#x441;" horiz-adv-x="972" d="M117 340q-6 173 0 344q5 153 117.5 256.5t304.5 103.5q68 0 151.5 -6.5t132.5 -13.5l49 -6l-26 -279q-140 19 -287 19q-50 0 -82.5 -26t-34.5 -64q-9 -156 0 -312q2 -36 34.5 -63t82.5 -27q69 0 142 8t111 16l38 7l41 -277q-190 -40 -352 -40q-192 0 -304 103t-118 257z " />
<glyph unicode="&#x442;" horiz-adv-x="991" d="M41 735v289h909v-289h-293v-735h-325v735h-291z" />
<glyph unicode="&#x443;" horiz-adv-x="1150" d="M31 1024h334l202 -649h8l220 649h325l-532 -1393h-318l170 414l-84 37z" />
<glyph unicode="&#x444;" horiz-adv-x="1593" d="M117 360q-5 153 0 304q5 153 117.5 256.5t304.5 103.5l94 -4v414h328v-414q61 4 94 4q192 0 304.5 -103.5t117.5 -256.5q5 -151 0 -304q-6 -154 -118 -257t-304 -103l-94 4v-373h-328v373q-63 -4 -94 -4q-192 0 -304 103t-118 257zM442 377q2 -36 34.5 -63t82.5 -27 q49 0 74 2v446q-25 2 -74 2q-50 0 -82.5 -26t-34.5 -64q-8 -135 0 -270zM961 289q25 -2 73 -2q50 0 82.5 27t34.5 63q8 135 0 270q-2 38 -34.5 64t-82.5 26t-73 -2v-446z" />
<glyph unicode="&#x445;" horiz-adv-x="1140" d="M41 0l350 530l-330 494h361l149 -244l148 244h360l-329 -496l350 -528h-363l-166 270l-168 -270h-362z" />
<glyph unicode="&#x446;" horiz-adv-x="1265" d="M143 0v1024h324v-733h283v733h325v-735h109v-520h-312l-12 231h-717z" />
<glyph unicode="&#x447;" horiz-adv-x="1134" d="M102 616v408h336v-403q0 -18 12.5 -33t45.5 -15q34 0 74 5.5t64 10.5l23 5v430h334v-1024h-334v303q-133 -22 -196 -22q-178 0 -268.5 91t-90.5 244z" />
<glyph unicode="&#x448;" horiz-adv-x="1638" d="M143 0v1024h320v-735h196v735h320v-735h197v735h319v-1024h-1352z" />
<glyph unicode="&#x449;" horiz-adv-x="1685" d="M143 0v1024h320v-735h196v735h320v-735h197v735h319v-735h109v-520h-312l-12 231h-1137z" />
<glyph unicode="&#x44a;" horiz-adv-x="1191" d="M20 768v256h537v-350h201q156 0 242.5 -66t95.5 -176q8 -86 0 -180q-10 -109 -97 -180.5t-241 -71.5h-525v762zM557 254h166q21 0 38 10.5t23 28.5q4 13 4 41.5t-4 42.5q-14 43 -61 43h-166v-166z" />
<glyph unicode="&#x44b;" horiz-adv-x="1617" d="M143 0v1024h324v-350h201q156 0 242.5 -66t95.5 -176q8 -86 0 -180q-10 -109 -97 -180.5t-241 -71.5h-525zM467 254h166q21 0 38 10.5t23 28.5q4 13 4 41.5t-4 42.5q-14 43 -61 43h-166v-166zM1149 0v1024h326v-1024h-326z" />
<glyph unicode="&#x44c;" horiz-adv-x="1101" d="M143 0v1024h324v-350h201q156 0 242.5 -66t95.5 -176q8 -86 0 -180q-10 -109 -97 -180.5t-241 -71.5h-525zM467 254h166q21 0 38 10.5t23 28.5q4 13 4 41.5t-4 42.5q-14 43 -61 43h-166v-166z" />
<glyph unicode="&#x44d;" horiz-adv-x="952" d="M61 20l41 277q135 -31 291 -31q50 0 82.5 27t34.5 63v29h-307v256h309q0 4 -1 13t-1 14q-2 38 -34.5 64t-82.5 26q-65 0 -137 -5t-111 -9l-39 -5l-26 279q180 26 334 26q192 0 304.5 -103.5t117.5 -256.5q6 -171 0 -344q-6 -154 -118 -257t-304 -103q-72 0 -160 10 t-140 20z" />
<glyph unicode="&#x44e;" horiz-adv-x="1636" d="M143 0v1024h326v-358h149q0 2 1.5 7.5t1.5 8.5q5 157 121 259.5t329 102.5q202 0 322.5 -104t126.5 -258q6 -170 0 -340q-6 -155 -127 -258.5t-322 -103.5q-209 0 -326.5 103t-123.5 259q0 5 -1.5 16t-1.5 17h-149v-375h-326zM946 356q2 -35 35 -62.5t90 -27.5 q56 0 88.5 28t34.5 62q9 154 0 312q-2 35 -35 62.5t-90 27.5q-56 0 -88.5 -28t-34.5 -62q-9 -158 0 -312z" />
<glyph unicode="&#x44f;" horiz-adv-x="1155" d="M41 0l233 360q-63 27 -101.5 85.5t-43.5 123.5q-6 97 0 195q8 121 88 190.5t242 69.5h553v-1024h-324v301h-113l-174 -301h-360zM446 667q0 -29 5 -42q14 -43 61 -43h176v166h-176q-21 0 -38 -10.5t-23 -28.5q-5 -13 -5 -42z" />
<glyph unicode="&#x451;" horiz-adv-x="1081" d="M117 342q-6 164 0 340q5 152 124 257t308 105q182 0 302 -103t126 -251q2 -42 2 -112.5t-1 -119.5l-1 -50h-541q0 -66 31 -111t96 -45q74 0 160 11t135 21l49 11l39 -258q-20 -6 -55.5 -15.5t-140 -25.5t-201.5 -16q-196 0 -311 103t-121 259zM188 1165v269h287v-269 h-287zM438 629h254q0 37 -2 47q-7 42 -38.5 74t-82.5 32q-54 0 -88 -32t-41 -74zM635 1165v269h287v-269h-287z" />
<glyph unicode="&#x452;" horiz-adv-x="1150" d="M61 1104v227h82v103h326v-103h207v-227h-207v-166q97 47 201 47q168 0 258 -100t90 -258v-695q0 -144 -90 -232.5t-248 -88.5q-35 0 -80 5t-72 10l-28 5l26 279q50 -14 105 -14q33 0 49 19.5t16 43.5v647q0 41 -24.5 70t-61.5 29t-72.5 -10.5t-51.5 -21.5l-17 -11v-662 h-326v1104h-82z" />
<glyph unicode="&#x453;" horiz-adv-x="937" d="M143 0v1024h754v-289h-428v-735h-326zM336 1165l196 299h406l-297 -299h-305z" />
<glyph unicode="&#x454;" horiz-adv-x="952" d="M117 340q-6 173 0 344q5 153 117.5 256.5t304.5 103.5q68 0 151.5 -6.5t132.5 -13.5l49 -6l-26 -279q-140 19 -287 19q-50 0 -82.5 -26t-34.5 -64q0 -5 -1 -14t-1 -13h310v-256h-308v-29q2 -36 34.5 -63t82.5 -27q69 0 142 8t111 16l38 7l41 -277q-190 -40 -352 -40 q-192 0 -304 103t-118 257z" />
<glyph unicode="&#x455;" horiz-adv-x="999" d="M102 721q0 160 106.5 241.5t287.5 81.5q79 0 166.5 -11.5t135.5 -22.5l48 -11l-37 -262q-186 35 -303 35q-86 0 -86 -55q0 -20 26.5 -35t68.5 -26.5t92.5 -25.5t101.5 -37t93 -55.5t68.5 -87.5t26.5 -126q0 -344 -420 -344q-91 0 -184 15t-140 29l-47 15l44 260 q174 -47 317 -47q65 0 89 14.5t24 48.5q0 20 -26.5 34.5t-68.5 26t-93 25.5t-102 38.5t-93 58.5t-68.5 91.5t-26.5 131.5z" />
<glyph unicode="&#x456;" horiz-adv-x="616" d="M143 1165v269h330v-269h-330zM145 0v1024h324v-1024h-324z" />
<glyph unicode="&#x457;" horiz-adv-x="616" d="M-57 1165v269h286v-269h-286zM145 0v1024h324v-1024h-324zM389 1165v269h287v-269h-287z" />
<glyph unicode="&#x458;" horiz-adv-x="618" d="M-92 -369l26 279q95 -14 150 -14q33 0 48 19t15 44v1065h324v-1092q0 -144 -90 -232.5t-248 -88.5q-35 0 -91 5t-95 10zM143 1165v269h332v-269h-332z" />
<glyph unicode="&#x459;" horiz-adv-x="1681" d="M20 0q9 12 23.5 34t52 91t66.5 139.5t52.5 171.5t23.5 195v393h829v-350h190q156 0 242.5 -66t95.5 -176q8 -86 0 -180q-10 -109 -97 -180.5t-241 -71.5h-516v735h-200v-112q0 -106 -17 -209.5t-41.5 -175t-49 -127.5t-41.5 -83l-17 -28h-355zM1067 254h156q21 0 38 10.5 t23 28.5q4 14 4 42.5t-4 41.5q-14 43 -61 43h-156v-166z" />
<glyph unicode="&#x45a;" horiz-adv-x="1689" d="M143 0v1024h326v-350h283v350h323v-350h191q156 0 242.5 -66t95.5 -176q8 -86 0 -180q-10 -109 -97 -180.5t-241 -71.5h-514v399h-283v-399h-326zM1075 254h156q21 0 38 10.5t23 28.5q4 14 4 35t-4 34q-14 44 -61 44h-156v-152z" />
<glyph unicode="&#x45b;" horiz-adv-x="1150" d="M61 1104v227h82v103h326v-103h207v-227h-207v-166q97 47 201 47q168 0 258 -100t90 -258v-627h-322v606q0 41 -24.5 70t-61.5 29t-72.5 -10.5t-51.5 -21.5l-17 -11v-662h-326v1104h-82z" />
<glyph unicode="&#x45c;" horiz-adv-x="1171" d="M143 0v1024h322v-332l260 332h377l-406 -481l455 -543h-403l-283 367v-367h-322zM446 1165l197 299h406l-297 -299h-306z" />
<glyph unicode="&#x45e;" horiz-adv-x="1150" d="M31 1024h334l202 -649h8l220 649h325l-532 -1393h-318l170 414l-84 37zM229 1466h222q0 -84 26 -121.5t96 -37.5q73 0 97 36.5t24 122.5h221q0 -142 -94.5 -232.5t-247.5 -90.5q-157 0 -250.5 90t-93.5 233z" />
<glyph unicode="&#x45f;" horiz-adv-x="1218" d="M143 0v1024h324v-733h283v733h325v-1024h-303l-6 -233h-313l-7 233h-303z" />
<glyph unicode="&#x462;" horiz-adv-x="1466" d="M41 1139v295h985v-304h-364v-206h315q193 0 292.5 -92.5t110.5 -256.5q7 -117 0 -231q-11 -162 -110.5 -253t-292.5 -91h-655v1130zM662 313h296q37 0 57.5 20.5t22.5 43.5q5 83 0 170q-2 24 -21.5 43.5t-58.5 19.5h-296v-297z" />
<glyph unicode="&#x463;" horiz-adv-x="1101" d="M61 1044v228h82v162h326v-162h207v-228h-209v-370h201q156 0 242.5 -66t95.5 -176q8 -86 0 -180q-10 -109 -97 -180.5t-241 -71.5h-525v1044h-82zM467 254h166q21 0 38 10.5t23 28.5q4 13 4 41.5t-4 42.5q-14 43 -61 43h-166v-166z" />
<glyph unicode="&#x472;" horiz-adv-x="1460" d="M133 710q0 162 6 244q10 135 86 248.5t209.5 182.5t296.5 69q166 0 299 -68t208 -181.5t83 -250.5q5 -82 5 -243t-5 -232q-7 -101 -53.5 -192t-123 -159t-184 -108t-229.5 -40q-124 0 -232 40t-183 108.5t-121.5 159t-55.5 191.5q-6 69 -6 231zM485 569q0 -48 4 -84 q5 -75 69.5 -133.5t172.5 -58.5q107 0 171 57.5t69 134.5q0 6 1 31.5t1 44.5q-51 -33 -109 -33q-39 0 -81 18.5t-70.5 40t-61.5 40t-57 18.5q-32 0 -56.5 -16.5t-52.5 -59.5zM485 885q52 30 109 30q39 0 81 -18t70.5 -40t61.5 -40t57 -18q32 0 56.5 17t52.5 61q0 16 -1 39.5 t-1 31.5q-5 74 -70 133.5t-170 59.5q-107 0 -172 -59t-70 -134z" />
<glyph unicode="&#x473;" horiz-adv-x="1132" d="M117 342q-6 168 0 340q5 157 121 259.5t329 102.5q202 0 322.5 -104t126.5 -258q6 -170 0 -340q-6 -155 -127 -258.5t-322 -103.5q-209 0 -326.5 103t-123.5 259zM416 377q0 -25 2 -37q5 -39 46 -75t103 -36q61 0 103 36.5t45 74.5l2 86q-4 -5 -11.5 -13.5t-32 -22 t-48.5 -13.5t-62 24.5t-65 24.5q-21 0 -41.5 -12t-30.5 -24zM416 602q43 45 92 45q24 0 61.5 -24.5t65.5 -24.5q21 0 41.5 13t30.5 25l10 13q-2 23 -2 35q-3 38 -45.5 73.5t-104.5 35.5q-61 0 -101.5 -35t-45.5 -74z" />
<glyph unicode="&#x474;" horiz-adv-x="1306" d="M41 1434h358l279 -1055l156 758q32 152 112.5 234.5t231.5 82.5q40 0 90 -9t80 -17l30 -9l-30 -295q-70 15 -121 15q-24 0 -43 -18t-25 -42l-282 -1079h-400z" />
<glyph unicode="&#x475;" horiz-adv-x="1038" d="M31 1024h331l136 -557l28 -174l25 172l78 348q25 116 85.5 173.5t188.5 57.5q36 0 82.5 -10t75.5 -20l29 -10l-31 -250q-59 14 -92 14q-20 0 -32.5 -13t-16.5 -28l-207 -727h-359z" />
<glyph unicode="&#x490;" horiz-adv-x="1179" d="M174 0v1434h643l12 309h310v-631h-615v-1112h-350z" />
<glyph unicode="&#x491;" horiz-adv-x="937" d="M143 0v1024h443l6 211h305v-500h-428v-735h-326z" />
<glyph unicode="&#x4d9;" horiz-adv-x="1081" d="M102 446.5q0 70.5 1 119.5l1 50h541q0 66 -31 111t-96 45q-74 0 -160 -11t-135 -21l-49 -11l-39 258q20 6 55.5 15.5t140 25.5t201.5 16q196 0 311.5 -103t121.5 -259q6 -164 0 -340q-5 -152 -124.5 -257t-308.5 -105q-182 0 -302 103t-126 251q-2 42 -2 112.5zM389 395 q0 -37 2 -47q7 -42 38.5 -74t82.5 -32q54 0 88 32t41 74l2 47h-254z" />
<glyph unicode="&#x2000;" horiz-adv-x="939" />
<glyph unicode="&#x2001;" horiz-adv-x="1878" />
<glyph unicode="&#x2002;" horiz-adv-x="939" />
<glyph unicode="&#x2003;" horiz-adv-x="1878" />
<glyph unicode="&#x2004;" horiz-adv-x="626" />
<glyph unicode="&#x2005;" horiz-adv-x="469" />
<glyph unicode="&#x2006;" horiz-adv-x="313" />
<glyph unicode="&#x2007;" horiz-adv-x="313" />
<glyph unicode="&#x2008;" horiz-adv-x="234" />
<glyph unicode="&#x2009;" horiz-adv-x="375" />
<glyph unicode="&#x200a;" horiz-adv-x="104" />
<glyph unicode="&#x2010;" horiz-adv-x="905" d="M143 440v305h619v-305h-619z" />
<glyph unicode="&#x2011;" horiz-adv-x="905" d="M143 440v305h619v-305h-619z" />
<glyph unicode="&#x2012;" horiz-adv-x="905" d="M143 440v305h619v-305h-619z" />
<glyph unicode="&#x2013;" horiz-adv-x="878" d="M0 440v305h879v-305h-879z" />
<glyph unicode="&#x2014;" horiz-adv-x="1757" d="M0 440v305h1757v-305h-1757z" />
<glyph unicode="&#x2018;" horiz-adv-x="499" d="M61 829v285q0 80 20 141t52 98t77.5 60.5t90.5 32t96 8.5v-166q-47 0 -87 -39t-40 -104h107v-316h-316z" />
<glyph unicode="&#x2019;" horiz-adv-x="499" d="M102 811v166q47 0 87 39t40 104h-106v316h315v-285q0 -80 -20 -141t-52 -98t-77.5 -60.5t-90.5 -32t-96 -8.5z" />
<glyph unicode="&#x201a;" horiz-adv-x="581" d="M113 -143q47 0 87 39t40 104h-107v315h316v-284q0 -80 -20 -141t-52 -98t-77.5 -60.5t-90.5 -32t-96 -8.5v166z" />
<glyph unicode="&#x201c;" horiz-adv-x="985" d="M61 829v285q0 80 20 141t52 98t77.5 60.5t90.5 32t96 8.5v-166q-47 0 -87 -39t-40 -104h107v-316h-316zM547 829v285q0 80 20 141t52 98t77.5 60.5t90.5 32t96 8.5v-166q-47 0 -87 -39t-40 -104h106v-316h-315z" />
<glyph unicode="&#x201d;" horiz-adv-x="985" d="M102 809v166q47 0 87 39t40 104h-106v316h315v-285q0 -80 -20 -141t-52 -98t-77.5 -60.5t-90.5 -32t-96 -8.5zM588 809v166q47 0 87 39t40 104h-107v316h316v-285q0 -80 -20 -141t-52 -98t-77.5 -60.5t-90.5 -32t-96 -8.5z" />
<glyph unicode="&#x201e;" horiz-adv-x="1067" d="M113 -143q47 0 87 39t40 104h-107v315h316v-284q0 -80 -20 -141t-52 -98t-77.5 -60.5t-90.5 -32t-96 -8.5v166zM598 -143q47 0 87 39t40 104h-107v315h316v-284q0 -80 -20 -141t-52 -98t-77.5 -60.5t-90.5 -32t-96 -8.5v166z" />
<glyph unicode="&#x2026;" horiz-adv-x="1929" d="M164 0v315h315v-315h-315zM807 0v315h315v-315h-315zM1450 0v315h315v-315h-315z" />
<glyph unicode="&#x202f;" horiz-adv-x="375" />
<glyph unicode="&#x2039;" horiz-adv-x="927" d="M133 586l283 358h368l-292 -356l292 -359h-368z" />
<glyph unicode="&#x203a;" horiz-adv-x="927" d="M143 229l293 359l-293 356h369l283 -358l-283 -357h-369z" />
<glyph unicode="&#x205f;" horiz-adv-x="469" />
<glyph unicode="&#x20ac;" d="M45 432v223h115v121h-115v223h121q21 194 173 324.5t384 130.5q92 0 192 -11t153 -23l54 -11l-12 -313q-207 37 -387 37q-80 0 -131 -37.5t-70 -96.5h422v-223h-434v-121h391v-223h-379q19 -58 69 -94.5t132 -36.5q92 0 193 11.5t156 23.5l56 12l13 -313q-23 -6 -63 -15 t-150 -24.5t-205 -15.5q-235 0 -384.5 128.5t-172.5 323.5h-121z" />
<glyph unicode="&#x2122;" horiz-adv-x="1669" d="M113 1249v185h555v-185h-185v-590h-190v590h-180zM807 659v775h192l168 -287l168 287h191v-775h-187v345l11 147l-113 -203h-145l-105 199l10 -143v-345h-190z" />
<glyph unicode="&#x25fc;" horiz-adv-x="1024" d="M0 0v1024h1024v-1024h-1024z" />
</font>
</defs>
</svg>
